<svg width="100%" height="100%" id="svg" viewBox="0 0 1440 600" xmlns="http://www.w3.org/2000/svg" class="transition duration-300 ease-in-out delay-150"><defs><linearGradient id="gradient" x1="27%" y1="6%" x2="73%" y2="94%"><stop offset="5%" stop-color="#35b0ab"></stop><stop offset="95%" stop-color="#35b0ab"></stop></linearGradient></defs><path d="M 0,600 C 0,600 0,200 0,200 C 120.72727272727272,212.51674641148327 241.45454545454544,225.0334928229665 324,233 C 406.54545454545456,240.9665071770335 450.9090909090909,244.3827751196172 534,219 C 617.0909090909091,193.6172248803828 738.909090909091,139.4354066985646 855,129 C 971.090909090909,118.5645933014354 1081.4545454545455,151.8755980861244 1178,171 C 1274.5454545454545,190.1244019138756 1357.2727272727273,195.0622009569378 1440,200 C 1440,200 1440,600 1440,600 Z" stroke="none" stroke-width="0" fill="url(#gradient)" fill-opacity="0.53" class="transition-all duration-300 ease-in-out delay-150 path-0" transform="rotate(-180 720 300)"></path><defs><linearGradient id="gradient" x1="27%" y1="6%" x2="73%" y2="94%"><stop offset="5%" stop-color="#35b0ab"></stop><stop offset="95%" stop-color="#35b0ab"></stop></linearGradient></defs><path d="M 0,600 C 0,600 0,400 0,400 C 82.32535885167462,386.7368421052631 164.65071770334924,373.4736842105263 262,368 C 359.34928229665076,362.5263157894737 471.72248803827756,364.8421052631579 570,377 C 668.2775119617224,389.1578947368421 752.4593301435407,411.1578947368421 848,431 C 943.5406698564593,450.8421052631579 1050.4401913875597,468.5263157894737 1151,463 C 1251.5598086124403,457.4736842105263 1345.77990430622,428.7368421052631 1440,400 C 1440,400 1440,600 1440,600 Z" stroke="none" stroke-width="0" fill="url(#gradient)" fill-opacity="1" class="transition-all duration-300 ease-in-out delay-150 path-1" transform="rotate(-180 720 300)"></path></svg>
