<svg width="100%" height="100%" id="svg" viewBox="0 0 1440 700" xmlns="http://www.w3.org/2000/svg" class="transition duration-300 ease-in-out delay-150"><path d="M 0,700 C 0,700 0,233 0,233 C 110.29665071770336,215.04784688995215 220.59330143540672,197.09569377990434 322,202 C 423.4066985645933,206.90430622009566 515.9234449760767,234.66507177033492 602,246 C 688.0765550239233,257.3349282296651 767.7129186602871,252.24401913875596 853,241 C 938.2870813397129,229.75598086124404 1029.2248803827752,212.35885167464116 1128,210 C 1226.7751196172248,207.64114832535884 1333.3875598086124,220.3205741626794 1440,233 C 1440,233 1440,700 1440,700 Z" stroke="none" stroke-width="0" fill="#323643" fill-opacity="0.53" class="transition-all duration-300 ease-in-out delay-150 path-0" transform="rotate(-180 720 350)"></path><path d="M 0,700 C 0,700 0,466 0,466 C 69.80861244019141,425.799043062201 139.61722488038282,385.59808612440196 242,382 C 344.3827751196172,378.40191387559804 479.3397129186602,411.4066985645933 576,431 C 672.6602870813398,450.5933014354067 731.0239234449762,456.77511961722496 834,463 C 936.9760765550238,469.22488038277504 1084.5645933014353,475.49282296650716 1193,476 C 1301.4354066985647,476.50717703349284 1370.7177033492824,471.2535885167464 1440,466 C 1440,466 1440,700 1440,700 Z" stroke="none" stroke-width="0" fill="#323643" fill-opacity="1" class="transition-all duration-300 ease-in-out delay-150 path-1" transform="rotate(-180 720 350)"></path></svg>